<?xml version="1.0" standalone="no"?>
<!DOCTYPE svg PUBLIC "-//W3C//DTD SVG 20010904//EN"
 "http://www.w3.org/TR/2001/REC-SVG-20010904/DTD/svg10.dtd">
<svg version="1.0" xmlns="http://www.w3.org/2000/svg"
 width="1200.000000pt" height="600.000000pt" viewBox="0 0 1200.000000 600.000000"
 preserveAspectRatio="xMidYMid meet" fill="none">
<g transform="translate(0.000000,600.000000) scale(0.100000,-0.100000)"
 stroke="none">
<path d="M4755 5130 c-259 -24 -455 -109 -615 -270 -129 -128 -211 -284 -253
-484 -22 -101 -22 -105 -22 -1376 0 -1275 0 -1275 22 -1377 75 -350 293 -599
618 -704 169 -55 137 -54 1495 -54 1142 0 1263 2 1345 17 205 39 332 98 484
227 110 92 218 268 261 423 49 178 49 188 46 1513 -2 1219 -3 1242 -23 1336
-86 390 -343 647 -732 732 -94 20 -121 20 -1316 23 -671 1 -1260 -2 -1310 -6z
m2844 -715 c63 -34 95 -71 129 -144 21 -46 24 -64 20 -130 -7 -117 -63 -202
-167 -253 -66 -33 -187 -32 -251 1 -175 91 -224 313 -100 454 74 84 129 108
240 104 61 -3 86 -9 129 -32z m-1985 -570 c136 -29 265 -109 327 -204 18 -28
35 -51 38 -51 3 0 21 23 38 50 63 95 191 175 331 206 98 22 282 15 362 -14
188 -66 317 -186 389 -357 59 -142 61 -165 61 -825 l0 -600 -205 0 -204 0 -3
593 -3 592 -26 55 c-47 101 -113 149 -215 158 -134 10 -222 -35 -276 -145
l-33 -68 -3 -592 -3 -593 -209 0 -210 0 0 560 c0 375 -4 576 -11 612 -31 146
-113 217 -261 226 -69 4 -84 2 -132 -22 -68 -33 -112 -87 -137 -167 -18 -57
-19 -101 -19 -635 l0 -574 -205 0 -205 0 0 613 c0 693 0 691 79 852 85 172
248 298 436 335 67 13 226 11 299 -5z" fill="currentColor"/>
</g>
</svg>
